:SAMPLES-PER-SECOND 30
:FULLY-SPECIFIED
:DEGREES
78
root  -2.68107 41.0149 0.133574 7.58897 -85.8433 -5.08128
RightUpLeg  0.799861 -1.62458 -1.36503
RightLeg  -6.53628 -24.1599 3.96074
RightFoot  3.41254 -0.329416 2.72437
RightToes  -3.1126e-008 1.75238e-005 3.56266e-009
Spine  13.9133 -3.45068 -10.8956
Spine1  -16.233 -4.78362 14.6062
HEad  1.14458 6.92391 1.17839
LeftShoulder1  0.8956 -0.226324 -17.3427
LeftArm  -5.45986 -17.6319 -47.8891
LeftForeArm  45.0692 -69.274 -25.3038
LeftHand  -0.529438 -4.28898 6.6291
RightShoulder  0.124486 -2.89876 14.485
RightArm  -40.8184 -5.86155 13.2469
RightForeArm  103.343 76.8126 123.822
RightHand  0.0829677 8.0911 0.330943
LeftUpLeg  -2.08833 1.2248 3.23718
LeftLeg  -1.35735 12.6374 -0.981496
LeftFoot  1.88165 0.300084 -2.68695
LeftToes  4.78049e-008 1.46235e-008 1.34219e-009
79
root  -2.58496 41.0186 0.19756 11.034 -86.6769 -8.4021
RightUpLeg  0.520439 -1.45557 -1.30735
RightLeg  -6.76523 -23.5061 3.95233
RightFoot  3.7479 -0.311264 2.54235
RightToes  -3.1126e-008 1.75238e-005 3.56266e-009
Spine  13.8124 -3.80026 -10.5503
Spine1  -15.7862 -5.14747 14.4144
HEad  -0.140311 7.41491 0.576192
LeftShoulder1  0.976515 -0.562904 -17.3437
LeftArm  -5.29625 -19.3097 -48.7952
LeftForeArm  46.6071 -70.1097 -26.5037
LeftHand  -0.513304 -4.10222 6.55109
RightShoulder  0.12818 -2.88621 14.6133
RightArm  -41.0757 -5.77257 13.3051
RightForeArm  103.378 76.8436 123.676
RightHand  0.0275188 7.97319 -0.134305
LeftUpLeg  -2.16995 1.2613 3.25585
LeftLeg  -1.52571 13.4718 -1.03795
LeftFoot  1.94578 0.299727 -2.68106
LeftToes  4.78049e-008 1.46235e-008 1.34219e-009
80
root  -2.50445 41.0177 0.250234 13.8524 -87.7284 -11.3192
RightUpLeg  0.285034 -1.44007 -1.38438
RightLeg  -6.52195 -22.4382 3.73959
RightFoot  3.8983 -0.317997 2.57825
RightToes  -3.1126e-008 1.75238e-005 3.56266e-009
Spine  13.9242 -3.63367 -10.5148
Spine1  -15.5485 -5.04093 14.7189
HEad  -0.614122 7.4673 0.294951
LeftShoulder1  1.01336 -0.622822 -17.9313
LeftArm  -4.76152 -20.2955 -49.6021
LeftForeArm  47.5459 -70.75 -27.5569
LeftHand  -0.509798 -3.82259 6.68583
RightShoulder  0.140456 -2.82519 14.4684
RightArm  -41.1635 -5.46218 13.5707
RightForeArm  103.786 76.8875 123.559
RightHand  -0.0153623 9.05904 -0.519365
LeftUpLeg  -1.99764 1.31066 3.21004
LeftLeg  -1.58144 14.5124 -1.12235
LeftFoot  1.86962 0.30685 -2.78695
LeftToes  4.78049e-008 1.46235e-008 1.34219e-009
81
root  -2.43867 41.015 0.293716 29.4962 -88.8028 -27.0039
RightUpLeg  -0.197922 -1.47526 -1.51731
RightLeg  -5.83684 -21.2644 3.38346
RightFoot  3.84782 -0.331239 2.68059
RightToes  -3.1126e-008 1.75238e-005 3.56266e-009
Spine  13.4216 -3.2963 -10.2246
Spine1  -14.7786 -4.73818 14.4433
HEad  -1.1916 7.4065 0.0401452
LeftShoulder1  1.05671 -0.74093 -18.3013
LeftArm  -4.25198 -21.1025 -50.238
LeftForeArm  48.2242 -71.151 -28.2518
LeftHand  -0.56647 -3.93506 7.32478
RightShoulder  0.164504 -2.71967 14.6689
RightArm  -40.9826 -4.87971 13.6491
RightForeArm  103.405 76.9729 123.023
RightHand  -0.0339267 8.82127 -0.665952
LeftUpLeg  -1.84944 1.29574 3.09637
LeftLeg  -1.6576 15.6369 -1.19203
LeftFoot  1.76144 0.311379 -2.85206
LeftToes  4.78049e-008 1.46235e-008 1.34219e-009
82
root  -2.38994 41.0129 0.334738 98.8217 -89.4122 -96.6034
RightUpLeg  -0.221546 -1.29651 -1.41765
RightLeg  -5.60732 -20.0994 3.11227
RightFoot  3.98519 -0.333884 2.68305
RightToes  -3.1126e-008 1.75238e-005 3.56266e-009
Spine  13.3025 -3.03327 -8.95993
Spine1  -14.3969 -4.34558 12.8408
HEad  -1.0598 6.82002 0.607255
LeftShoulder1  1.02543 -0.672482 -17.9299
LeftArm  -3.9582 -21.0766 -50.554
LeftForeArm  49.4642 -71.7509 -29.3255
LeftHand  -0.536747 -4.26377 6.73203
RightShoulder  0.211668 -2.52264 15.2391
RightArm  -40.4509 -4.08866 14.2514
RightForeArm  102.823 77.0987 122.21
RightHand  -0.015226 8.71162 -0.515236
LeftUpLeg  -1.51421 1.37349 3.12186
LeftLeg  -1.50542 16.8472 -1.10765
LeftFoot  1.60374 0.312784 -2.85744
LeftToes  4.78049e-008 1.46235e-008 1.34219e-009
83
root  -2.35191 41.0127 0.339516 165.851 -88.5246 -163.849
RightUpLeg  -0.250469 -1.10729 -1.35786
RightLeg  -5.45951 -19.0512 2.80649
RightFoot  4.09015 -0.334417 2.67377
RightToes  -3.1126e-008 1.75238e-005 3.56266e-009
Spine  13.3693 -2.55862 -8.69751
Spine1  -14.3861 -3.85248 12.6102
HEad  -1.30924 7.05197 0.475656
LeftShoulder1  0.979273 -0.501756 -17.8162
LeftArm  -3.81157 -20.0862 -50.5763
LeftForeArm  51.5052 -72.6212 -31.0009
LeftHand  -0.553705 -4.07253 7.06485
RightShoulder  0.298404 -2.13846 15.3584
RightArm  -39.5176 -3.58644 14.7867
RightForeArm  103.014 77.1383 122.05
RightHand  -0.0645583 8.49879 -0.923016
LeftUpLeg  -1.02588 1.46429 3.1022
LeftLeg  -1.80429 17.9695 -1.25872
LeftFoot  1.64405 0.31517 -2.85622
LeftToes  4.78049e-008 1.46235e-008 1.34219e-009
84
root  -2.3352 41.0132 0.348201 173.091 -87.3766 -171.183
RightUpLeg  -0.450435 -1.03386 -1.38532
RightLeg  -5.15413 -17.9496 2.5217
RightFoot  4.13553 -0.346843 2.74761
RightToes  -3.1126e-008 1.75238e-005 3.56266e-009
Spine  12.9312 -2.27444 -8.0964
Spine1  -13.897 -3.50894 11.7934
HEad  -2.40237 7.90837 -0.0542995
LeftShoulder1  0.976863 -0.473249 -17.9397
LeftArm  -4.26227 -19.3354 -49.7008
LeftForeArm  52.168 -73.2492 -32.5441
LeftHand  -0.555829 -4.02969 7.11963
RightShoulder  0.374079 -1.84004 16.0157
RightArm  -38.2678 -2.61986 15.4483
RightForeArm  103.731 77.1101 122.392
RightHand  -0.0352864 8.67826 -0.678118
LeftUpLeg  -0.584302 1.42263 2.99972
LeftLeg  -2.22765 19.198 -1.38733
LeftFoot  1.6972 0.327137 -2.95302
LeftToes  4.78049e-008 1.46235e-008 1.34219e-009
85
root  -2.34284 41.0128 0.347953 174.894 -86.2489 -173.192
RightUpLeg  -0.377446 -0.850747 -1.27133
RightLeg  -5.06796 -17.0167 2.30803
RightFoot  4.15734 -0.360312 2.85566
RightToes  -3.1126e-008 1.75238e-005 3.56266e-009
Spine  12.3884 -1.94705 -7.39916
Spine1  -13.2356 -3.11823 10.8827
HEad  -2.86843 7.55734 0.182043
LeftShoulder1  0.940673 -0.346929 -17.7868
LeftArm  -5.20703 -18.9501 -49.9522
LeftForeArm  53.1959 -73.5378 -33.152
LeftHand  -0.531015 -4.02163 6.81864
RightShoulder  0.429371 -1.60496 16.1152
RightArm  -36.5551 -2.23913 17.0618
RightForeArm  105.592 76.9866 123.526
RightHand  -0.0432774 8.52364 -0.744915
LeftUpLeg  -0.149096 1.52573 3.03432
LeftLeg  -2.27883 20.2448 -1.40483
LeftFoot  1.49703 0.347249 -3.16814
LeftToes  4.78049e-008 1.46235e-008 1.34219e-009
86
root  -2.35974 41.0103 0.338596 174.735 -85.5724 -173.259
RightUpLeg  -0.200493 -0.816079 -1.17586
RightLeg  -5.00577 -16.3962 2.26721
RightFoot  4.13835 -0.355494 2.82272
RightToes  -3.1126e-008 1.75238e-005 3.56266e-009
Spine  11.7741 -1.83751 -6.77477
Spine1  -12.3521 -2.97475 10.1424
HEad  -4.05028 7.26537 0.0925034
LeftShoulder1  0.846367 -0.00245347 -17.4793
LeftArm  -6.07184 -19.0936 -50.4865
LeftForeArm  53.8429 -73.7807 -33.7323
LeftHand  -0.548849 -4.22186 6.91073
RightShoulder  0.428734 -1.63519 16.4718
RightArm  -33.7119 -2.09054 18.6367
RightForeArm  107.93 76.892 124.595
RightHand  -0.0847718 8.5386 -1.09152
LeftUpLeg  0.165661 1.65031 3.13385
LeftLeg  -2.09904 20.801 -1.33292
LeftFoot  1.16754 0.380171 -3.5339
LeftToes  4.78049e-008 1.46235e-008 1.34219e-009
87
root  -2.39877 41.0046 0.310895 174.427 -84.9743 -173.217
RightUpLeg  0.0439954 -0.777624 -1.05737
RightLeg  -4.87223 -15.8308 2.2146
RightFoot  3.96977 -0.349995 2.80468
RightToes  -3.1126e-008 1.75238e-005 3.56266e-009
Spine  11.5591 -1.59012 -6.4431
Spine1  -12.1866 -2.69355 9.84456
HEad  -4.42243 7.6382 -0.170441
LeftShoulder1  0.865037 -0.0669273 -17.5712
LeftArm  -6.95481 -20.3691 -50.5355
LeftForeArm  53.2725 -73.708 -33.6502
LeftHand  -0.488643 -4.60684 5.95838
RightShoulder  0.549699 -1.13512 16.7088
RightArm  -30.6158 -3.13564 19.793
RightForeArm  110.481 76.6906 126.193
RightHand  -0.155376 8.51764 -1.67653
LeftUpLeg  0.474415 1.78234 3.24924
LeftLeg  -1.79341 21.2576 -1.18432
LeftFoot  0.898918 0.399844 -3.77735
LeftToes  4.78049e-008 1.46235e-008 1.34219e-009
88
root  -2.45512 41.0041 0.266021 173.984 -84.6709 -172.958
RightUpLeg  0.256367 -0.879866 -1.00172
RightLeg  -4.71894 -15.4185 2.2958
RightFoot  3.77038 -0.346569 2.76475
RightToes  -3.1126e-008 1.75238e-005 3.56266e-009
Spine  11.4049 -1.5537 -6.37243
Spine1  -12.2907 -2.6322 9.79293
HEad  -4.09745 7.48336 -0.0977959
LeftShoulder1  0.880182 -0.136545 -17.5111
LeftArm  -7.85256 -22.1685 -50.0107
LeftForeArm  53.6808 -74.0404 -34.5984
LeftHand  -0.560801 -4.70868 6.74007
RightShoulder  0.655535 -0.702169 16.8865
RightArm  -26.9592 -4.38055 21.0311
RightForeArm  111.704 76.7304 126.313
RightHand  -0.197057 8.95889 -1.98436
LeftUpLeg  0.810414 1.89401 3.37545
LeftLeg  -1.75791 21.4167 -1.14493
LeftFoot  0.735699 0.402889 -3.83354
LeftToes  4.78049e-008 1.46235e-008 1.34219e-009
89
root  -2.5373 40.9994 0.202052 172.998 -84.7635 -171.971
RightUpLeg  0.328897 -0.820101 -0.841571
RightLeg  -4.5311 -15.5772 2.28779
RightFoot  3.46075 -0.347176 2.77108
RightToes  -3.1126e-008 1.75238e-005 3.56266e-009
Spine  11.2744 -1.60622 -6.67056
Spine1  -12.8116 -2.67227 10.197
HEad  -3.56649 7.26737 -0.133838
LeftShoulder1  0.761551 0.278065 -16.9029
LeftArm  -8.66626 -25.124 -50.0441
LeftForeArm  54.2666 -74.1777 -34.9073
LeftHand  -0.546699 -4.81693 6.51256
RightShoulder  0.709462 -0.524111 17.3118
RightArm  -22.8635 -6.22564 21.6447
RightForeArm  112.593 76.7729 126.34
RightHand  -0.185566 8.53896 -1.92618
LeftUpLeg  0.871329 2.08043 3.59142
LeftLeg  -1.56712 21.0996 -1.11665
LeftFoot  0.470234 0.409748 -3.97405
LeftToes  4.78049e-008 1.46235e-008 1.34219e-009
90
root  -2.65616 41.0005 0.144111 173.428 -84.9964 -172.298
RightUpLeg  0.419036 -0.908561 -0.867607
RightLeg  -4.44558 -15.6827 2.31855
RightFoot  3.10422 -0.351881 2.83037
RightToes  -3.1126e-008 1.75238e-005 3.56266e-009
Spine  11.007 -1.70388 -7.03034
Spine1  -13.272 -2.74579 10.5306
HEad  -3.3053 7.2789 -0.476873
LeftShoulder1  0.711879 0.442256 -16.514
LeftArm  -10.0459 -28.5747 -49.5362
LeftForeArm  53.9586 -74.3355 -35.5225
LeftHand  -0.568092 -4.47818 6.96938
RightShoulder  0.779806 -0.296663 17.8655
RightArm  -19.6165 -8.64277 21.9788
RightForeArm  112.742 76.7168 126.632
RightHand  -0.0950229 8.71339 -1.16793
LeftUpLeg  0.985319 2.06238 3.60488
LeftLeg  -1.63562 20.9077 -1.12161
LeftFoot  0.198407 0.42792 -4.25013
LeftToes  4.78049e-008 1.46235e-008 1.34219e-009
91
root  -2.79209 41.0035 0.0831444 174.338 -85.195 -173.047
RightUpLeg  0.402834 -0.937399 -0.884645
RightLeg  -4.21039 -15.8142 2.23142
RightFoot  2.64134 -0.36699 3.04616
RightToes  -3.1126e-008 1.75238e-005 3.56266e-009
Spine  10.886 -1.6543 -7.64657
Spine1  -14.0664 -2.68426 11.3307
HEad  -3.22038 7.17128 -1.00623
LeftShoulder1  0.649461 0.656214 -16.0103
LeftArm  -11.8751 -32.311 -48.9566
LeftForeArm  53.3003 -74.1615 -35.0989
LeftHand  -0.566216 -4.14433 7.16809
RightShoulder  0.760581 -0.347167 17.6217
RightArm  -16.6355 -11.2956 22.9736
RightForeArm  113.302 76.7152 126.778
RightHand  -0.118416 8.8124 -1.35534
LeftUpLeg  1.14328 2.03723 3.61069
LeftLeg  -1.81235 20.8044 -1.18505
LeftFoot  -0.183024 0.470573 -4.80467
LeftToes  4.78049e-008 1.46235e-008 1.34219e-009
